<svg width="1280" height="720" xmlns="http://www.w3.org/2000/svg" xmlns:xlink="http://www.w3.org/1999/xlink" overflow="hidden"><defs><clipPath id="clip0"><rect x="13" y="7" width="115" height="88"/></clipPath><clipPath id="clip1"><rect x="13" y="7" width="115" height="88"/></clipPath><clipPath id="clip2"><rect x="13" y="7" width="115" height="88"/></clipPath></defs><g><rect x="0" y="0" width="1280" height="720" fill="#E2F4ED"/><g clip-path="url(#clip0)"><g clip-path="url(#clip1)"><g clip-path="url(#clip2)"><path d="M73.3333 0C81.4335-5.21065e-15 88 6.56649 88 14.6667L88 73.3333C88 81.4335 81.4335 88 73.3333 88L14.6667 88C6.56649 88 0 81.4335 0 73.3333L0 14.6667C-2.60532e-15 6.56649 6.56649-2.60532e-15 14.6667-5.21065e-15Z" fill="#FFFFFF" transform="matrix(1.30682 0 0 1 13 7)"/><path d="M76.2667 33.7333C76.2745 23.2112 67.751 14.675 57.2288 14.6672 52.2957 14.6635 47.5536 16.5734 44 19.9951 36.4003 12.7165 24.3391 12.9769 17.0606 20.5766 9.96489 27.9854 10.0088 39.6822 17.16 47.0375L17.1453 47.0375 41.8983 72.4533 41.8983 72.4533C43.0251 73.6117 44.8775 73.6372 46.0359 72.5104 46.0551 72.4917 46.0742 72.4726 46.0929 72.4533L46.0929 72.4533 70.8576 47.0375 70.84 47.0375C74.3212 43.4845 76.2697 38.7076 76.2667 33.7333Z" fill="#F2C4BB" transform="matrix(1.30682 0 0 1 13 7)"/><path d="M44 75.5333C42.6669 75.5366 41.3856 75.0169 40.4316 74.0857 40.3949 74.0535 40.3583 74.0183 40.3231 73.9816L15.5672 48.5731C15.5159 48.5203 15.4675 48.466 15.4205 48.4088 7.30217 39.9311 7.59351 26.4773 16.0712 18.3589 23.7495 11.0061 35.6795 10.4577 44 17.0749 53.1977 9.78096 66.5668 11.3242 73.8607 20.5219 80.4536 28.8354 79.9055 40.7378 72.5765 48.4103 72.5309 48.4674 72.4819 48.5217 72.4299 48.5731L47.6769 73.9816C47.6417 74.0188 47.6051 74.054 47.5669 74.0872 46.6134 75.018 45.3325 75.5373 44 75.5333ZM43.3957 70.8312C43.4236 70.8561 43.45 70.8825 43.4779 70.9104 43.7541 71.1988 44.2118 71.2086 44.5002 70.9323 44.5077 70.9252 44.515 70.9179 44.5221 70.9104L44.6043 70.8297 69.1313 45.6573C69.1753 45.6031 69.2208 45.5517 69.2692 45.5019 75.7592 38.8286 75.6106 28.1577 68.9374 21.6677 62.4301 15.3391 52.0796 15.3005 45.5253 21.5805 44.6736 22.4001 43.3264 22.4001 42.4747 21.5805 35.7533 15.1404 25.0838 15.3684 18.6436 22.0898 12.3636 28.6441 12.4022 38.9945 18.7308 45.5019 18.7807 45.5517 18.8261 45.6045 18.8701 45.6573Z" fill="#F28080" transform="matrix(1.30682 0 0 1 13 7)"/><path d="M46.1017 74.6533C44.8867 74.654 43.9012 73.6696 43.9005 72.4546 43.9002 71.8804 44.1243 71.3289 44.5251 70.9177L69.1313 45.6573C69.1753 45.6031 69.2208 45.5517 69.2692 45.5019 72.35 42.3601 74.073 38.1336 74.0667 33.7333 74.0667 32.5183 75.0516 31.5333 76.2667 31.5333 77.4817 31.5333 78.4667 32.5183 78.4667 33.7333 78.4758 39.2034 76.3645 44.4641 72.5765 48.4103 72.5309 48.4674 72.4819 48.5217 72.4299 48.5731L47.6769 73.9816C47.2641 74.4091 46.696 74.6514 46.1017 74.6533Z" fill="#BF95BC" transform="matrix(1.30682 0 0 1 13 7)"/><path d="M49.8667 57.9333C49.808 57.9333 49.7479 57.9333 49.6892 57.926 48.7273 57.8479 47.9286 57.1521 47.7195 56.21L44 39.4753 40.2805 56.21C40.0171 57.3961 38.842 58.1441 37.6559 57.8807 36.9463 57.7231 36.3603 57.2252 36.0903 56.5503L31.7783 45.7673 28.2304 51.0869C27.8224 51.699 27.1356 52.0666 26.4 52.0667L11.7333 52.0667C10.5183 52.0667 9.53333 51.0817 9.53333 49.8667 9.53333 48.6516 10.5183 47.6667 11.7333 47.6667L25.2267 47.6667 30.4407 39.8464C31.1145 38.8353 32.4804 38.562 33.4914 39.2358 33.862 39.4827 34.1488 39.8363 34.3141 40.2497L37.5408 48.3032 41.8631 28.8567C42.1277 27.6708 43.3035 26.924 44.4894 27.1886 45.3217 27.3743 45.9717 28.0243 46.1575 28.8567L50.4797 48.3032 53.7064 40.2497C54.1575 39.1215 55.4377 38.5726 56.5659 39.0237 56.9794 39.189 57.3329 39.4759 57.5799 39.8464L62.7733 47.6667 76.2667 47.6667C77.4817 47.6667 78.4667 48.6516 78.4667 49.8667 78.4667 51.0817 77.4817 52.0667 76.2667 52.0667L61.6 52.0667C60.8644 52.0666 60.1776 51.699 59.7696 51.0869L56.2217 45.7673 51.9097 56.5503C51.5756 57.3857 50.7664 57.9335 49.8667 57.9333Z" fill="#8D9CF4" transform="matrix(1.30682 0 0 1 13 7)"/></g></g></g><path d="M0 104 1280 104" stroke="#094780" stroke-width="2" stroke-miterlimit="8" fill="none" fill-rule="evenodd"/><rect x="20" y="120" width="1240" height="98" fill="#FFFFFF" fill-opacity="0.501961"/><rect x="20" y="355" width="607" height="165" fill="#FFFFFF" fill-opacity="0.501961"/><rect x="20" y="235" width="1240" height="98" fill="#FFFFFF" fill-opacity="0.501961"/><rect x="20" y="538" width="607" height="165" fill="#FFFFFF" fill-opacity="0.501961"/><rect x="653" y="355" width="607" height="165" fill="#FFFFFF" fill-opacity="0.501961"/><rect x="653" y="538" width="607" height="165" fill="#FFFFFF" fill-opacity="0.501961"/><path d="M252.5 137.5 252.5 200.773" stroke="#156082" stroke-miterlimit="8" fill="none" fill-rule="evenodd"/><path d="M1043.5 137.5 1043.5 200.773" stroke="#156082" stroke-miterlimit="8" fill="none" fill-rule="evenodd"/><path d="M789.5 137.5 789.5 200.773" stroke="#156082" stroke-miterlimit="8" fill="none" fill-rule="evenodd"/><path d="M527.5 137.5 527.5 200.773" stroke="#156082" stroke-miterlimit="8" fill="none" fill-rule="evenodd"/><path d="M160.5 251.5 160.5 314.773" stroke="#156082" stroke-miterlimit="8" fill="none" fill-rule="evenodd"/><path d="M627.5 251.5 627.5 314.773" stroke="#156082" stroke-miterlimit="8" fill="none" fill-rule="evenodd"/><path d="M456.5 251.5 456.5 314.773" stroke="#156082" stroke-miterlimit="8" fill="none" fill-rule="evenodd"/><path d="M302.5 251.5 302.5 314.773" stroke="#156082" stroke-miterlimit="8" fill="none" fill-rule="evenodd"/><path d="M1115.5 251.5 1115.5 314.773" stroke="#156082" stroke-miterlimit="8" fill="none" fill-rule="evenodd"/><path d="M952.5 251.5 952.5 314.773" stroke="#156082" stroke-miterlimit="8" fill="none" fill-rule="evenodd"/><path d="M781.5 251.5 781.5 314.773" stroke="#156082" stroke-miterlimit="8" fill="none" fill-rule="evenodd"/></g></svg>